<svg width="18" height="22" viewBox="0 0 18 22" fill="none" xmlns="http://www.w3.org/2000/svg">
<path d="M16.3125 8.55652C16.3125 6.80183 15.5421 5.11901 14.1707 3.87826C12.7994 2.6375 10.9394 1.94045 9 1.94045C7.0606 1.94045 5.20064 2.6375 3.82928 3.87826C2.45792 5.11901 1.6875 6.80183 1.6875 8.55652C1.6875 11.2706 4.08762 14.808 9 19.0452C13.9124 14.808 16.3125 11.2706 16.3125 8.55652ZM9 21.0535C3.04112 16.1532 0.0625 11.9866 0.0625 8.55652C0.0625 6.4119 1.00413 4.35512 2.68023 2.83864C4.35634 1.32216 6.62963 0.470215 9 0.470215C11.3704 0.470215 13.6437 1.32216 15.3198 2.83864C16.9959 4.35512 17.9375 6.4119 17.9375 8.55652C17.9375 11.9866 14.9589 16.1532 9 21.0535Z" fill="#893D06"/>
<path d="M9 10.7619C9.64647 10.7619 10.2665 10.5296 10.7236 10.116C11.1807 9.70242 11.4375 9.14147 11.4375 8.55658C11.4375 7.97168 11.1807 7.41074 10.7236 6.99715C10.2665 6.58357 9.64647 6.35122 9 6.35122C8.35353 6.35122 7.73355 6.58357 7.27643 6.99715C6.81931 7.41074 6.5625 7.97168 6.5625 8.55658C6.5625 9.14147 6.81931 9.70242 7.27643 10.116C7.73355 10.5296 8.35353 10.7619 9 10.7619ZM9 12.2322C7.92256 12.2322 6.88925 11.8449 6.12738 11.1556C5.36551 10.4663 4.9375 9.53141 4.9375 8.55658C4.9375 7.58175 5.36551 6.64685 6.12738 5.95754C6.88925 5.26823 7.92256 4.88098 9 4.88098C10.0774 4.88098 11.1108 5.26823 11.8726 5.95754C12.6345 6.64685 13.0625 7.58175 13.0625 8.55658C13.0625 9.53141 12.6345 10.4663 11.8726 11.1556C11.1108 11.8449 10.0774 12.2322 9 12.2322Z" fill="#893D06"/>
</svg>
